#!OML:ASF H:\Dans Jumps\Project 1\Capture day 1\Session 1\subject.ASF
:FULLY-SPECIFIED
:DEGREES
183
root 0.602407 15.2102 -16.709 30.3802 2.15756 -1.96483
lowerback 26.8965 0.392516 0.079549
upperback 3.37967 0.92052 3.14169
thorax -11.2378 0.500839 3.18408
lowerneck -18.5448 -0.741726 -2.42593
upperneck -9.28507 -0.563314 -0.980018
head 0.0935285 -0.231912 0.0658321
rclavicle 0 1.15295e-014
rhumerus -39.8479 -16.9198 -64.7684
rradius 26.6928
rwrist 30.1903
rhand -16.4506 -23.5203
rfingers 7.12502
rthumb 9.76548 -53.2739
lclavicle 0 1.15295e-014
lhumerus -41.3104 -4.61098 81.1263
lradius 23.4031
lwrist 13.3994
lhand -27.8214 -7.29241
lfingers 7.12502
lthumb -1.21341 22.6839
rfemur -75.9087 -0.928032 20.4085
rtibia 67.5372
rfoot -26.1713 -12.9274
rtoes -0.838766
lfemur -76.1825 3.16483 -20.2657
ltibia 66.5763
lfoot -21.8232 18.1847
ltoes -16.0204
184
root 0.594964 15.121 -16.7416 31.1188 2.24055 -1.92717
lowerback 27.6314 0.448304 0.0124748
upperback 3.32855 0.990516 3.16827
thorax -11.6871 0.540701 3.2382
lowerneck -18.5456 -0.787089 -2.43849
upperneck -9.81119 -0.630336 -0.965377
head -0.07932 -0.258865 0.0688961
rclavicle -3.97569e-016 -2.0276e-014
rhumerus -40.7856 -17.0939 -64.1116
rradius 26.4636
rwrist 30.427
rhand -16.3942 -23.3798
rfingers 7.12502
rthumb 9.81981 -53.1308
lclavicle -3.97569e-016 -2.0276e-014
lhumerus -42.2765 -4.37558 80.9338
lradius 23.0402
lwrist 13.1359
lhand -27.7747 -7.43057
lfingers 7.12502
lthumb -1.16828 22.546
rfemur -77.5166 -0.887384 20.3652
rtibia 68.6465
rfoot -26.4564 -13.4721
rtoes -0.436082
lfemur -77.7767 2.94994 -20.2046
ltibia 67.6472
lfoot -22.0103 18.6273
ltoes -15.8855
185
root 0.587286 15.0313 -16.7704 31.8494 2.32017 -1.8898
lowerback 28.3584 0.504609 -0.0531395
upperback 3.28214 1.05995 3.19282
thorax -12.1266 0.580212 3.28863
lowerneck -18.5437 -0.84376 -2.47808
upperneck -10.3371 -0.706633 -0.922849
head -0.251633 -0.289265 0.084928
rclavicle 1.19271e-015 1.59028e-014
rhumerus -41.7184 -17.2876 -63.4479
rradius 26.2307
rwrist 30.6491
rhand -16.2703 -23.2573
rfingers 7.12502
rthumb 9.93939 -53.0027
lclavicle 1.19271e-015 1.59028e-014
lhumerus -43.2174 -4.0718 80.6998
lradius 22.6378
lwrist 12.8699
lhand -27.8324 -7.72792
lfingers 7.12502
lthumb -1.22406 22.2483
rfemur -79.0967 -0.845317 20.3215
rtibia 69.746
rfoot -26.7736 -13.9455
rtoes -0.0406653
lfemur -79.3439 2.7535 -20.1475
ltibia 68.7072
lfoot -22.2024 19.031
ltoes -15.746
186
root 0.579611 14.9411 -16.7952 32.5629 2.39182 -1.85832
lowerback 29.0864 0.562798 -0.114193
upperback 3.24252 1.13141 3.214
thorax -12.5582 0.620259 3.33107
lowerneck -18.5388 -0.903964 -2.52638
upperneck -10.8654 -0.785669 -0.869701
head -0.42445 -0.320618 0.105819
rclavicle 8.34896e-015 1.09332e-014
rhumerus -42.6406 -17.5061 -62.7798
rradius 25.9953
rwrist 30.8735
rhand -16.0825 -23.1313
rfingers 7.12502
rthumb 10.1205 -52.8679
lclavicle 8.34896e-015 1.09332e-014
lhumerus -44.1329 -3.70458 80.4228
lradius 22.2034
lwrist 12.5714
lhand -27.8073 -7.95721
lfingers 7.12502
lthumb -1.19978 22.0192
rfemur -80.6376 -0.799957 20.2848
rtibia 70.8309
rfoot -27.1241 -14.326
rtoes 0.314995
lfemur -80.875 2.58434 -20.0938
ltibia 69.7539
lfoot -22.3935 19.387
ltoes -15.6003
187
root 0.57194 14.8517 -16.816 33.2336 2.45771 -1.83789
lowerback 29.9262 0.622607 -0.159283
upperback 2.83155 1.21671 3.35882
thorax -12.6889 0.629222 3.23629
lowerneck -18.5227 -0.962172 -2.57256
upperneck -11.4064 -0.863024 -0.820548
head -0.60265 -0.351081 0.125498
rclavicle -7.95139e-015 5.76476e-015
rhumerus -43.548 -17.7425 -62.1138
rradius 25.7713
rwrist 31.1013
rhand -15.8212 -23.0232
rfingers 7.12502
rthumb 10.3726 -52.7474
lclavicle -7.95139e-015 5.76476e-015
lhumerus -45.0131 -3.2631 80.0944
lradius 21.7348
lwrist 12.2111
lhand -27.9592 -8.31586
lfingers 7.12502
lthumb -1.34652 21.6596
rfemur -82.1041 -0.753762 20.2667
rtibia 71.8942
rfoot -27.5028 -14.6123
rtoes 0.610092
lfemur -82.3376 2.44676 -20.0383
ltibia 70.7801
lfoot -22.5737 19.693
ltoes -15.4619
188
root 0.563882 14.7637 -16.8332 33.8431 2.51408 -1.8204
lowerback 30.7483 0.689159 -0.217552
upperback 2.78727 1.29809 3.38231
thorax -13.1079 0.669879 3.26074
lowerneck -18.4836 -1.01678 -2.60982
upperneck -11.9776 -0.938645 -0.777612
head -0.7939 -0.380646 0.142295
rclavicle -3.97569e-016 -6.55989e-015
rhumerus -44.431 -18.0075 -61.4539
rradius 25.5577
rwrist 31.3424
rhand -15.5175 -22.9361
rfingers 7.12502
rthumb 10.6656 -52.6454
lclavicle -3.97569e-016 -6.55989e-015
lhumerus -45.8478 -2.74514 79.7041
lradius 21.2379
lwrist 11.7605
lhand -28.1514 -8.64148
lfingers 7.12502
lthumb -1.53215 21.3328
rfemur -83.4759 -0.708886 20.2611
rtibia 72.9317
rfoot -27.8901 -14.8247
rtoes 0.848378
lfemur -83.7093 2.34431 -19.9936
ltibia 71.7799
lfoot -22.7455 19.9405
ltoes -15.3304
189
root 0.555501 14.6779 -16.8468 34.3747 2.56549 -1.80368
lowerback 31.6501 0.758204 -0.276347
upperback 2.7556 1.38103 3.4016
thorax -13.5425 0.710583 3.27888
lowerneck -18.4238 -1.06523 -2.63328
upperneck -12.5785 -1.01019 -0.745675
head -0.998062 -0.408375 0.154125
rclavicle 7.95139e-016 -1.31198e-014
rhumerus -45.2846 -18.3154 -60.7916
rradius 25.3453
rwrist 31.6158
rhand -15.2106 -22.8656
rfingers 7.12502
rthumb 10.9616 -52.5594
lclavicle 7.95139e-016 -1.31198e-014
lhumerus -46.6277 -2.15181 79.2481
lradius 20.7129
lwrist 11.2104
lhand -28.1864 -8.77843
lfingers 7.12502
lthumb -1.56597 21.1956
rfemur -84.7299 -0.680467 20.2777
rtibia 73.9384
rfoot -28.2692 -14.9893
rtoes 1.03892
lfemur -84.9668 2.27576 -19.9653
ltibia 72.7482
lfoot -22.9114 20.1282
ltoes -15.2127
190
root 0.546437 14.595 -16.8572 34.8227 2.60979 -1.7803
lowerback 32.6347 0.831569 -0.345406
upperback 2.73936 1.46373 3.415
thorax -13.9888 0.750878 3.29469
lowerneck -18.3387 -1.10274 -2.62564
upperneck -13.2163 -1.07548 -0.737248
head -1.21888 -0.433876 0.154404
rclavicle -5.1684e-015 7.95139e-016
rhumerus -46.0946 -18.6724 -60.1325
rradius 25.1238
rwrist 31.901
rhand -14.963 -22.8108
rfingers 7.12502
rthumb 11.2005 -52.4918
lclavicle -5.1684e-015 7.95139e-016
lhumerus -47.3323 -1.48581 78.723
lradius 20.1449
lwrist 10.5548
lhand -28.1167 -8.82319
lfingers 7.12502
lthumb -1.49867 21.1513
rfemur -85.8608 -0.673578 20.3125
rtibia 74.9116
rfoot -28.6262 -15.1286
rtoes 1.19465
lfemur -86.1018 2.24402 -19.9694
ltibia 73.6839
lfoot -23.0769 20.2593
ltoes -15.0996
191
root 0.536907 14.5152 -16.8641 35.1818 2.64609 -1.75438
lowerback 33.7029 0.908398 -0.419463
upperback 2.73715 1.54616 3.42165
thorax -14.4461 0.790368 3.30428
lowerneck -18.2371 -1.14012 -2.61243
upperneck -13.8742 -1.14218 -0.722434
head -1.45001 -0.460122 0.156352
rclavicle 2.78299e-015 -1.72943e-014
rhumerus -46.8553 -19.0786 -59.4783
rradius 24.8851
rwrist 32.1903
rhand -14.7325 -22.7738
rfingers 7.12502
rthumb 11.4228 -52.4427
lclavicle 2.78299e-015 -1.72943e-014
lhumerus -47.9557 -0.747831 78.121
lradius 19.5461
lwrist 9.83901
lhand -27.8328 -8.71402
lfingers 7.12502
lthumb -1.2244 21.2622
rfemur -86.8608 -0.689376 20.3701
rtibia 75.8475
rfoot -28.9478 -15.2674
rtoes 1.34301
lfemur -87.1074 2.25383 -20.0105
ltibia 74.5895
lfoot -23.2407 20.3518
ltoes -14.9929
192
root 0.527878 14.4393 -16.867 35.4442 2.66647 -1.74259
lowerback 34.8535 0.989435 -0.484742
upperback 2.74608 1.6337 3.42088
thorax -14.9146 0.830412 3.29706
lowerneck -18.1085 -1.15285 -2.53167
upperneck -14.5494 -1.19265 -0.765376
head -1.69372 -0.481137 0.130118
rclavicle 5.1684e-015 1.8487e-014
rhumerus -47.5628 -19.5129 -58.8423
rradius 24.6182
rwrist 32.4627
rhand -14.5593 -22.7559
rfingers 7.12502
rthumb 11.5898 -52.4154
lclavicle 5.1684e-015 1.8487e-014
lhumerus -48.5082 0.035405 77.46
lradius 18.9177
lwrist 9.07129
lhand -27.3257 -8.50859
lfingers 7.12502
lthumb -0.734623 21.4699
rfemur -87.714 -0.722317 20.4631
rtibia 76.7397
rfoot -29.2393 -15.4023
rtoes 1.47555
lfemur -87.9697 2.31536 -20.0808
ltibia 75.4702
lfoot -23.4245 20.4226
ltoes -14.8551
193
root 0.519649 14.367 -16.8657 35.6294 2.675 -1.75527
lowerback 36.0528 1.0728 -0.530571
upperback 2.7597 1.72845 3.41553
thorax -15.3853 0.871224 3.26943
lowerneck -17.952 -1.15069 -2.40766
upperneck -15.2283 -1.23443 -0.845838
head -1.94603 -0.499787 0.0853754
rclavicle -3.97569e-016 -5.76476e-015
rhumerus -48.2154 -19.9611 -58.233
rradius 24.3193
rwrist 32.721
rhand -14.4624 -22.7657
rfingers 7.12502
rthumb 11.6832 -52.4199
lclavicle -3.97569e-016 -5.76476e-015
lhumerus -48.9948 0.863104 76.7434
lradius 18.258
lwrist 8.23831
lhand -26.8128 -8.37676
lfingers 7.12502
lthumb -0.239299 21.6029
rfemur -88.4409 -0.768098 20.6004
rtibia 77.5859
rfoot -29.5016 -15.5313
rtoes 1.58676
lfemur -88.713 2.43172 -20.1731
ltibia 76.3302
lfoot -23.6265 20.4909
ltoes -14.6919
194
root 0.512684 14.2981 -16.86 35.7598 2.68041 -1.80245
lowerback 37.2502 1.15299 -0.543063
upperback 2.77985 1.82996 3.41016
thorax -15.8346 0.911619 3.21921
lowerneck -17.778 -1.13672 -2.25724
upperneck -15.8947 -1.26739 -0.952543
head -2.20036 -0.515392 0.0280052
rclavicle -7.95139e-015 -1.8487e-014
rhumerus -48.7966 -20.4171 -57.656
rradius 23.9777
rwrist 33.0017
rhand -14.4363 -22.7932
rfingers 7.12502
rthumb 11.7083 -52.4461
lclavicle -7.95139e-015 -1.8487e-014
lhumerus -49.4177 1.71658 75.9981
lradius 17.5738
lwrist 7.33107
lhand -26.2582 -8.28008
lfingers 7.12502
lthumb 0.296377 21.6995
rfemur -89.0639 -0.828657 20.795
rtibia 78.3871
rfoot -29.7428 -15.6455
rtoes 1.65766
lfemur -89.3638 2.60206 -20.2757
ltibia 77.1734
lfoot -23.8452 20.5683
ltoes -14.502
195
root 0.506871 14.2321 -16.8494 35.8573 2.69515 -1.88335
lowerback 38.4789 1.2236 -0.509984
upperback 2.72998 1.93643 3.40054
thorax -16.2511 0.950278 3.14998
lowerneck -17.5918 -1.11536 -2.09926
upperneck -16.5331 -1.29297 -1.07428
head -2.45056 -0.527875 -0.035723
rclavicle -9.14409e-015 -6.75868e-015
rhumerus -49.3045 -20.8729 -57.112
rradius 23.5963
rwrist 33.3564
rhand -14.4591 -22.8181
rfingers 7.12502
rthumb 11.6864 -52.4722
lclavicle -9.14409e-015 -6.75868e-015
lhumerus -49.7809 2.58646 75.2406
lradius 16.8735
lwrist 6.34073
lhand -25.9082 -8.33209
lfingers 7.12502
lthumb 0.634422 21.6467
rfemur -89.6062 -0.908592 21.051
rtibia 79.1492
rfoot -29.9735 -15.737
rtoes 1.68377
lfemur -89.9471 2.81685 -20.3801
ltibia 77.998
lfoot -24.0738 20.6578
ltoes -14.2949
196
root 0.501445 14.1692 -16.8338 35.9375 2.73223 -1.97829
lowerback 39.5573 1.2816 -0.457003
upperback 2.76082 2.03706 3.40599
thorax -16.62 0.984165 3.07468
lowerneck -17.4038 -1.09558 -1.96241
upperneck -17.1309 -1.31541 -1.18134
head -2.69011 -0.538177 -0.0917857
rclavicle 2.26615e-014 1.59028e-015
rhumerus -49.7244 -21.3326 -56.6049
rradius 23.1783
rwrist 33.8264
rhand -14.5033 -22.8465
rfingers 7.12502
rthumb 11.6438 -52.5029
lclavicle 2.26615e-014 1.59028e-015
lhumerus -50.0703 3.48778 74.4647
lradius 16.1535
lwrist 5.24172
lhand -25.8023 -8.48425
lfingers 7.12502
lthumb 0.736708 21.4942
rfemur -90.0847 -1.01832 21.3534
rtibia 79.8802
rfoot -30.2041 -15.8051
rtoes 1.67964
lfemur -90.4769 3.05813 -20.4931
ltibia 78.7992
lfoot -24.3058 20.7553
ltoes -14.0893
